<svg width="35" height="40" viewBox="0 0 35 40" fill="none" xmlns="http://www.w3.org/2000/svg">
<path d="M13.8801 16.78C13.3371 16.78 12.8162 16.9957 12.4322 17.3797C12.0483 17.7636 11.8327 18.2844 11.8327 18.8273C11.8327 19.3703 12.0484 19.891 12.4323 20.2749C12.8163 20.6588 13.337 20.8745 13.8799 20.8745C14.4229 20.8745 14.9436 20.6588 15.3276 20.2749C15.7115 19.891 15.9272 19.3703 15.9272 18.8273C15.9272 18.2844 15.7116 17.7636 15.3277 17.3797C14.9437 16.9957 14.423 16.78 13.8801 16.78ZM21.18 16.78C20.733 16.7421 20.2849 16.8401 19.8944 17.0611C19.5039 17.2821 19.1893 17.6159 18.9917 18.0187C18.7941 18.4215 18.7227 18.8746 18.7868 19.3187C18.851 19.7628 19.0478 20.1771 19.3514 20.5075C19.655 20.8379 20.0512 21.0689 20.4883 21.1703C20.9254 21.2718 21.3829 21.2389 21.8009 21.0759C22.219 20.913 22.5781 20.6277 22.8313 20.2572C23.0845 19.8868 23.2199 19.4486 23.2199 18.9999C23.2319 18.7202 23.1886 18.4408 23.0925 18.1778C22.9964 17.9148 22.8495 17.6734 22.66 17.4672C22.4706 17.261 22.2424 17.0942 21.9884 16.9763C21.7345 16.8584 21.4598 16.7917 21.18 16.78ZM30.8999 0H4.10015C3.5604 0.00127518 3.02618 0.108859 2.528 0.316607C2.02983 0.524355 1.57746 0.828198 1.19672 1.21079C0.81598 1.59337 0.514331 2.04721 0.308999 2.54639C0.103667 3.04556 -0.00132697 3.58029 1.26594e-05 4.12005V31.16C-0.00130396 31.6998 0.103707 32.2345 0.309048 32.7337C0.51439 33.2328 0.816041 33.6866 1.19678 34.0692C1.57751 34.4518 2.02988 34.7556 2.52804 34.9634C3.0262 35.1711 3.56041 35.2787 4.10015 35.28H26.7801L25.72 31.5799L28.2799 33.9599L30.7 36.1999L35 40V4.12005C35.0014 3.58029 34.8964 3.04556 34.6911 2.54639C34.4857 2.04721 34.1841 1.59337 33.8033 1.21079C33.4226 0.828198 32.9702 0.524355 32.472 0.316607C31.9739 0.108859 31.4397 0.00127518 30.8999 0ZM23.18 26.12C23.18 26.12 22.4599 25.26 21.8598 24.5C23.3096 24.1586 24.5919 23.3156 25.48 22.12C24.7605 22.599 23.9888 22.9948 23.18 23.2999C22.2496 23.6971 21.2765 23.9857 20.28 24.16C18.5671 24.4753 16.8105 24.4685 15.1001 24.14C14.0959 23.9435 13.1118 23.6556 12.1599 23.2801C11.6583 23.0871 11.1705 22.8599 10.6999 22.6C10.6399 22.5599 10.5801 22.54 10.52 22.5C10.4899 22.4851 10.4628 22.4647 10.44 22.4401C10.0802 22.2401 9.87984 22.1 9.87984 22.1C10.7359 23.2705 11.9739 24.1053 13.3799 24.46C12.7801 25.2201 12.0401 26.12 12.0401 26.12C10.852 26.152 9.67435 25.8915 8.61066 25.3614C7.54698 24.8312 6.6299 24.0478 5.94016 23.08C6.0051 19.0254 6.98981 15.0385 8.82002 11.4199C10.4307 10.1549 12.3944 9.42117 14.44 9.31995L14.6398 9.56005C12.7153 10.0362 10.9195 10.9308 9.38002 12.18C9.38002 12.18 9.82009 11.94 10.56 11.6C11.9976 10.9437 13.5299 10.5185 15.1002 10.3401C15.2122 10.3168 15.326 10.3034 15.4404 10.3C16.7805 10.1254 18.1368 10.112 19.4802 10.2601C21.5929 10.5013 23.638 11.1535 25.5002 12.18C24.0388 10.9904 22.3415 10.1246 20.5205 9.63998L20.8003 9.32014C22.8459 9.42128 24.8096 10.1551 26.4203 11.4201C28.2507 15.0386 29.2355 19.0255 29.3004 23.0801C28.605 24.047 27.684 24.8294 26.6173 25.3592C25.5506 25.889 24.3706 26.1501 23.18 26.12Z" fill="#8372C8"/>
</svg>
