<svg width="35" height="35" viewBox="0 0 35 35" fill="none" xmlns="http://www.w3.org/2000/svg">
<path d="M11.6676 17.5C11.6676 14.2785 14.2785 11.6662 17.5 11.6662C20.7215 11.6662 23.3338 14.2785 23.3338 17.5C23.3338 20.7215 20.7215 23.3338 17.5 23.3338C14.2785 23.3338 11.6676 20.7215 11.6676 17.5ZM8.51393 17.5C8.51393 22.463 12.537 26.4861 17.5 26.4861C22.463 26.4861 26.4861 22.463 26.4861 17.5C26.4861 12.537 22.463 8.51393 17.5 8.51393C12.537 8.51393 8.51393 12.537 8.51393 17.5ZM24.7417 8.15771C24.7417 9.31684 25.6817 10.2583 26.8423 10.2583C28.0014 10.2583 28.9429 9.31684 28.9429 8.15771C28.9429 6.99859 28.0028 6.05856 26.8423 6.05856C25.6817 6.05856 24.7417 6.99859 24.7417 8.15771ZM10.4293 31.7445C8.72314 31.6668 7.79584 31.3827 7.17952 31.1424C6.36248 30.8243 5.78009 30.4455 5.1666 29.8334C4.55452 29.2213 4.17427 28.6389 3.85763 27.8219C3.61733 27.2056 3.3332 26.2783 3.25545 24.5721C3.17064 22.7274 3.15368 22.1733 3.15368 17.5C3.15368 12.8267 3.17205 12.274 3.25545 10.4279C3.3332 8.72173 3.61874 7.79584 3.85763 7.17811C4.17569 6.36107 4.55452 5.77868 5.1666 5.16519C5.77868 4.55311 6.36107 4.17286 7.17952 3.85622C7.79584 3.61591 8.72314 3.33178 10.4293 3.25404C12.274 3.16922 12.8281 3.15226 17.5 3.15226C22.1733 3.15226 22.726 3.17064 24.5721 3.25404C26.2783 3.33178 27.2042 3.61733 27.8219 3.85622C28.6389 4.17286 29.2213 4.55311 29.8348 5.16519C30.4469 5.77726 30.8257 6.36107 31.1438 7.17811C31.3841 7.79443 31.6682 8.72173 31.746 10.4279C31.8308 12.274 31.8477 12.8267 31.8477 17.5C31.8477 22.1719 31.8308 22.726 31.746 24.5721C31.6682 26.2783 31.3827 27.2056 31.1438 27.8219C30.8257 28.6389 30.4469 29.2213 29.8348 29.8334C29.2227 30.4455 28.6389 30.8243 27.8219 31.1424C27.2056 31.3827 26.2783 31.6668 24.5721 31.7445C22.7274 31.8294 22.1733 31.8463 17.5 31.8463C12.8281 31.8463 12.274 31.8294 10.4293 31.7445ZM10.2851 0.106018C8.42205 0.190832 7.14984 0.486268 6.03736 0.918821C4.88671 1.36551 3.91135 1.96486 2.9374 2.9374C1.96486 3.90994 1.36551 4.8853 0.918821 6.03736C0.486268 7.14984 0.190832 8.42205 0.106018 10.2851C0.01979 12.151 0 12.7476 0 17.5C0 22.2524 0.01979 22.8489 0.106018 24.7149C0.190832 26.5779 0.486268 27.8502 0.918821 28.9626C1.36551 30.1133 1.96345 31.0901 2.9374 32.0626C3.90994 33.0351 4.8853 33.6331 6.03736 34.0812C7.15125 34.5137 8.42205 34.8092 10.2851 34.894C12.1525 34.9788 12.7476 35 17.5 35C22.2538 35 22.8489 34.9802 24.7149 34.894C26.5779 34.8092 27.8502 34.5137 28.9626 34.0812C30.1133 33.6331 31.0886 33.0351 32.0626 32.0626C33.0351 31.0901 33.6331 30.1133 34.0812 28.9626C34.5137 27.8502 34.8106 26.5779 34.894 24.7149C34.9788 22.8475 34.9986 22.2524 34.9986 17.5C34.9986 12.7476 34.9788 12.151 34.894 10.2851C34.8092 8.42205 34.5137 7.14984 34.0812 6.03736C33.6331 4.88671 33.0351 3.91135 32.0626 2.9374C31.0901 1.96486 30.1133 1.36551 28.9641 0.918821C27.8502 0.486268 26.5779 0.189418 24.7163 0.106018C22.8504 0.0212036 22.2538 0 17.5014 0C12.7476 0 12.1525 0.01979 10.2851 0.106018Z" fill="#8372C8"/>
</svg>
