<svg role="img" viewBox="0 0 24 24" xmlns="http://www.w3.org/2000/svg" id="Teepublic--Streamline-Simple-Icons" height="24" width="24">
  <desc>
    Teepublic Streamline Icon: https://streamlinehq.com
  </desc>
  <title>TeePublic</title>
  <path d="M6.998 0.488s-0.57 0.33 -0.68 0.982c-0.097 0.584 0.138 1.114 0.19 1.22 -0.408 0.255 -0.797 0.539 -1.165 0.849 0.506 -0.577 0.561 -1.384 0.038 -2.147 0 0 -0.516 0.41 -0.53 1.07 -0.013 0.6 0.306 1.096 0.365 1.183 -0.338 0.294 -0.657 0.613 -0.956 0.95 0.356 -0.63 0.27 -1.396 -0.335 -2.043 0 0 -0.448 0.483 -0.363 1.138 0.074 0.568 0.433 0.999 0.527 1.103 -0.222 0.263 -0.432 0.537 -0.628 0.823 -0.1 0.148 -0.196 0.298 -0.289 0.45 0.39 -0.726 0.232 -1.569 -0.53 -2.179 0 0 -0.375 0.543 -0.196 1.179 0.175 0.62 0.68 1.016 0.705 1.035 -0.277 0.456 -0.517 0.93 -0.718 1.42 0.226 -0.78 -0.098 -1.562 -0.955 -2.006 0 0 -0.26 0.605 0.04 1.194 0.28 0.551 0.821 0.84 0.89 0.874 -0.18 0.445 -0.329 0.902 -0.444 1.368 0.063 -0.763 -0.372 -1.445 -1.247 -1.747 0 0 -0.17 0.636 0.21 1.175 0.346 0.487 0.894 0.696 0.997 0.732 -0.097 0.418 -0.167 0.843 -0.211 1.273 -0.11 -0.69 -0.63 -1.226 -1.476 -1.382 0 0 -0.073 0.655 0.385 1.131 0.382 0.396 0.9 0.534 1.062 0.569a10.67 10.67 0 0 0 -0.01 1.342C1.48 11.351 0.881 10.872 0 10.839c0 0 0.022 0.659 0.544 1.064 0.45 0.349 1.004 0.402 1.149 0.41 0.039 0.466 0.11 0.928 0.21 1.382 -0.308 -0.657 -0.984 -1.032 -1.864 -0.911 0 0 0.135 0.645 0.72 0.953 0.503 0.265 1.059 0.223 1.203 0.205 0.111 0.448 0.251 0.887 0.42 1.316 -0.396 -0.623 -1.128 -0.905 -1.992 -0.655 0 0 0.227 0.618 0.85 0.838 0.549 0.195 1.105 0.062 1.228 0.028 0.17 0.403 0.366 0.796 0.585 1.176 -0.487 -0.514 -1.23 -0.66 -2.019 -0.296 0 0 0.318 0.578 0.966 0.703 0.554 0.106 1.067 -0.091 1.205 -0.151a10.27 10.27 0 0 0 0.895 1.231c-0.566 -0.568 -1.4 -0.667 -2.201 -0.145 0 0 0.397 0.526 1.057 0.556 0.635 0.029 1.163 -0.318 1.202 -0.344 0.358 0.417 0.748 0.802 1.165 1.155 -0.675 -0.49 -1.54 -0.44 -2.245 0.249 0 0 0.493 0.438 1.146 0.337 0.643 -0.098 1.1 -0.56 1.114 -0.574 0.388 0.327 0.8 0.625 1.231 0.892 -0.724 -0.35 -1.545 -0.164 -2.127 0.598 0 0 0.551 0.362 1.183 0.169 0.592 -0.181 0.97 -0.665 1.015 -0.724 0.38 0.23 0.776 0.437 1.183 0.617 -0.705 -0.135 -1.4 0.187 -1.824 0.958 0 0 0.599 0.276 1.195 -0.009 0.51 -0.245 0.806 -0.712 0.88 -0.84 0.436 0.179 0.885 0.329 1.344 0.447 -0.751 -0.069 -1.43 0.349 -1.75 1.205 0 0 0.633 0.186 1.18 -0.182 0.494 -0.332 0.718 -0.872 0.757 -0.977l0.153 0.035 0.081 0.018c0.704 0.155 1.325 0.32 1.864 0.497 -0.82 0.315 -1.6 0.74 -1.958 1.293a0.097 0.097 0 0 0 0.081 0.15 0.098 0.098 0 0 0 0.081 -0.045c0.31 -0.478 1.012 -0.912 2.093 -1.296 1.082 0.384 1.783 0.818 2.093 1.296 0.019 0.028 0.05 0.044 0.082 0.044a0.097 0.097 0 0 0 0.081 -0.15c-0.359 -0.552 -1.138 -0.977 -1.958 -1.292a19.34 19.34 0 0 1 1.863 -0.497l0.082 -0.018c0.05 -0.01 0.101 -0.023 0.152 -0.035 0.04 0.105 0.263 0.645 0.757 0.977 0.548 0.368 1.18 0.182 1.18 0.182 -0.32 -0.856 -0.998 -1.274 -1.75 -1.205a10.27 10.27 0 0 0 1.345 -0.448c0.074 0.129 0.369 0.596 0.88 0.841 0.595 0.285 1.195 0.01 1.195 0.01 -0.424 -0.772 -1.12 -1.094 -1.825 -0.959 0.407 -0.18 0.802 -0.386 1.183 -0.617 0.046 0.06 0.424 0.543 1.015 0.724 0.632 0.193 1.183 -0.17 1.183 -0.17 -0.582 -0.761 -1.402 -0.946 -2.127 -0.598 0.431 -0.266 0.843 -0.564 1.232 -0.891 0.013 0.014 0.47 0.476 1.113 0.574 0.653 0.1 1.146 -0.337 1.146 -0.337 -0.704 -0.688 -1.57 -0.739 -2.245 -0.25 0.417 -0.352 0.807 -0.737 1.166 -1.154 0.04 0.028 0.568 0.373 1.202 0.344 0.66 -0.03 1.057 -0.556 1.057 -0.556 -0.802 -0.521 -1.635 -0.423 -2.2 0.144l0.13 -0.156c0.277 -0.342 0.532 -0.702 0.763 -1.074 0.139 0.06 0.651 0.257 1.205 0.15 0.649 -0.124 0.966 -0.702 0.966 -0.702 -0.79 -0.363 -1.53 -0.218 -2.019 0.295 0.22 -0.38 0.415 -0.772 0.585 -1.175 0.123 0.034 0.68 0.167 1.229 -0.028 0.622 -0.22 0.85 -0.838 0.85 -0.838 -0.865 -0.25 -1.596 0.032 -1.993 0.655 0.168 -0.429 0.309 -0.868 0.42 -1.316 0.144 0.018 0.7 0.06 1.203 -0.205 0.585 -0.308 0.72 -0.953 0.72 -0.953 -0.88 -0.121 -1.556 0.254 -1.864 0.912 0.1 -0.455 0.171 -0.916 0.21 -1.383 0.146 -0.008 0.7 -0.062 1.15 -0.41 0.522 -0.405 0.543 -1.064 0.543 -1.064 -0.88 0.033 -1.479 0.511 -1.674 1.203a10.609 10.609 0 0 0 -0.01 -1.34c0.162 -0.036 0.68 -0.173 1.062 -0.569 0.458 -0.476 0.385 -1.131 0.385 -1.131 -0.846 0.156 -1.364 0.693 -1.476 1.381 -0.044 -0.43 -0.114 -0.854 -0.21 -1.272 0.103 -0.036 0.65 -0.245 0.996 -0.732 0.38 -0.539 0.21 -1.175 0.21 -1.175 -0.875 0.302 -1.31 0.984 -1.246 1.748a10.218 10.218 0 0 0 -0.443 -1.37c0.067 -0.034 0.608 -0.322 0.89 -0.873 0.3 -0.589 0.038 -1.194 0.038 -1.194 -0.857 0.444 -1.18 1.227 -0.954 2.006a10.36 10.36 0 0 0 -0.719 -1.42c0.025 -0.02 0.53 -0.415 0.706 -1.035 0.178 -0.636 -0.196 -1.179 -0.196 -1.179 -0.763 0.61 -0.922 1.453 -0.532 2.178 -0.092 -0.151 -0.187 -0.301 -0.288 -0.449a10.29 10.29 0 0 0 -0.628 -0.823c0.094 -0.104 0.454 -0.535 0.527 -1.103 0.086 -0.655 -0.363 -1.138 -0.363 -1.138 -0.604 0.647 -0.69 1.413 -0.334 2.043 -0.3 -0.338 -0.619 -0.656 -0.957 -0.95 0.06 -0.087 0.378 -0.584 0.365 -1.183 -0.013 -0.66 -0.53 -1.07 -0.53 -1.07 -0.523 0.763 -0.467 1.57 0.038 2.147 -0.368 -0.31 -0.756 -0.594 -1.164 -0.85 0.05 -0.105 0.287 -0.635 0.19 -1.219 -0.11 -0.651 -0.68 -0.982 -0.68 -0.982 -0.403 0.822 -0.239 1.605 0.33 2.103a10.37 10.37 0 0 0 -1.2 -0.619c-0.504 -0.813 -1.318 -1.082 -2.1 -0.795 0 0 0.317 0.603 0.93 0.892 0.413 0.193 0.823 0.127 1.049 0.062 0.401 0.173 0.787 0.368 1.156 0.585 -0.57 -0.164 -1.168 0.043 -1.588 0.639 0 0 0.475 0.288 1 0.104 0.435 -0.15 0.721 -0.493 0.808 -0.609 0.377 0.236 0.736 0.493 1.075 0.772 -0.54 -0.246 -1.163 -0.128 -1.667 0.401 0 0 0.43 0.354 0.976 0.249 0.45 -0.087 0.782 -0.383 0.886 -0.485 0.358 0.31 0.692 0.644 1.001 0.998 -0.507 -0.376 -1.175 -0.374 -1.78 0.097 0 0 0.371 0.413 0.927 0.39 0.482 -0.018 0.87 -0.287 0.965 -0.358 0.28 0.332 0.537 0.681 0.77 1.046 -0.443 -0.378 -1.065 -0.44 -1.691 -0.085 0 0 0.307 0.463 0.86 0.522 0.444 0.046 0.84 -0.13 0.979 -0.202 0.227 0.376 0.43 0.766 0.607 1.17 -0.363 -0.441 -0.952 -0.615 -1.624 -0.392 0 0 0.21 0.513 0.742 0.68 0.427 0.132 0.85 0.036 1 -0.007 0.163 0.404 0.3 0.82 0.41 1.245 -0.29 -0.512 -0.858 -0.783 -1.572 -0.657 0 0 0.135 0.539 0.637 0.78 0.412 0.197 0.854 0.158 0.999 0.137 0.108 0.469 0.183 0.949 0.224 1.437 -0.172 -0.626 -0.718 -1.039 -1.5 -1.02 0 0 0.052 0.553 0.512 0.866 0.412 0.28 0.9 0.287 1 0.286a10.758 10.758 0 0 1 0.004 1.392c-0.101 -0.615 -0.574 -1.077 -1.327 -1.168 0 0 -0.028 0.554 0.382 0.931 0.35 0.32 0.805 0.406 0.93 0.424 -0.04 0.472 -0.112 0.934 -0.216 1.389 -0.004 -0.613 -0.39 -1.138 -1.105 -1.355 0 0 -0.123 0.542 0.215 0.983 0.287 0.374 0.716 0.537 0.84 0.579 -0.107 0.427 -0.242 0.845 -0.402 1.251 0.06 -0.587 -0.248 -1.138 -0.906 -1.448 0 0 -0.2 0.518 0.071 1.004 0.221 0.397 0.602 0.619 0.735 0.687 -0.178 0.418 -0.382 0.823 -0.612 1.212 0.167 -0.583 -0.051 -1.192 -0.668 -1.605 0 0 -0.276 0.482 -0.08 1.003 0.163 0.434 0.517 0.713 0.63 0.794 -0.218 0.352 -0.458 0.69 -0.716 1.012 0.188 -0.525 0.043 -1.11 -0.472 -1.576 0 0 -0.343 0.437 -0.225 0.981 0.092 0.42 0.363 0.73 0.484 0.852 -0.27 0.314 -0.56 0.613 -0.866 0.893 0.263 -0.473 0.226 -1.057 -0.177 -1.6 0 0 -0.422 0.362 -0.412 0.918 0.007 0.43 0.214 0.788 0.308 0.93 -0.318 0.27 -0.653 0.522 -1.003 0.753 0.36 -0.434 0.423 -1.037 0.092 -1.654 0 0 -0.47 0.297 -0.54 0.85 -0.057 0.436 0.106 0.83 0.175 0.977 -0.395 0.242 -0.809 0.458 -1.239 0.644 0.505 -0.365 0.706 -0.995 0.45 -1.71 0 0 -0.508 0.223 -0.66 0.758 -0.132 0.46 -0.002 0.909 0.038 1.026a9.93 9.93 0 0 1 -1.256 0.423c0.513 -0.3 0.776 -0.88 0.632 -1.596 0 0 -0.536 0.148 -0.764 0.655 -0.188 0.416 -0.137 0.856 -0.114 1.002l-0.15 0.035 -0.08 0.018c-0.427 0.093 -1.27 0.279 -2.12 0.577a18.04 18.04 0 0 0 -2.12 -0.577l-0.08 -0.018 -0.15 -0.035c0.024 -0.146 0.074 -0.586 -0.113 -1.002 -0.228 -0.507 -0.764 -0.655 -0.764 -0.655 -0.144 0.717 0.119 1.296 0.632 1.596a9.966 9.966 0 0 1 -1.256 -0.423c0.039 -0.118 0.17 -0.566 0.038 -1.026 -0.152 -0.535 -0.66 -0.758 -0.66 -0.758 -0.257 0.715 -0.055 1.345 0.45 1.71a9.992 9.992 0 0 1 -1.24 -0.644c0.07 -0.146 0.232 -0.54 0.176 -0.978 -0.07 -0.552 -0.54 -0.849 -0.54 -0.849 -0.332 0.617 -0.269 1.22 0.092 1.654 -0.35 -0.23 -0.685 -0.482 -1.004 -0.753 0.094 -0.142 0.301 -0.5 0.308 -0.93 0.01 -0.556 -0.412 -0.918 -0.412 -0.918 -0.403 0.543 -0.44 1.127 -0.177 1.6 -0.306 -0.28 -0.595 -0.579 -0.865 -0.893 0.12 -0.122 0.392 -0.433 0.484 -0.852 0.118 -0.544 -0.225 -0.98 -0.225 -0.98 -0.515 0.465 -0.66 1.05 -0.473 1.575a10.23 10.23 0 0 1 -0.716 -1.012c0.114 -0.08 0.468 -0.36 0.63 -0.794 0.196 -0.52 -0.08 -1.003 -0.08 -1.003 -0.617 0.413 -0.834 1.022 -0.667 1.605 -0.23 -0.389 -0.435 -0.794 -0.612 -1.212 0.133 -0.068 0.513 -0.29 0.734 -0.687 0.272 -0.486 0.071 -1.004 0.071 -1.004 -0.658 0.31 -0.965 0.861 -0.905 1.448 -0.16 -0.406 -0.296 -0.824 -0.403 -1.251 0.125 -0.042 0.554 -0.205 0.84 -0.579 0.34 -0.441 0.216 -0.983 0.216 -0.983 -0.716 0.217 -1.101 0.742 -1.106 1.354a10.103 10.103 0 0 1 -0.217 -1.388c0.127 -0.018 0.582 -0.104 0.932 -0.424 0.41 -0.377 0.382 -0.931 0.382 -0.931 -0.753 0.091 -1.226 0.553 -1.328 1.167a9.665 9.665 0 0 1 0.005 -1.391c0.1 0.002 0.588 -0.005 0.999 -0.286 0.46 -0.313 0.512 -0.866 0.512 -0.866 -0.781 -0.019 -1.327 0.393 -1.5 1.019 0.042 -0.488 0.116 -0.967 0.225 -1.436 0.145 0.021 0.587 0.06 1 -0.137 0.5 -0.241 0.635 -0.78 0.635 -0.78 -0.713 -0.126 -1.281 0.146 -1.571 0.657 0.11 -0.426 0.247 -0.841 0.41 -1.245 0.15 0.043 0.573 0.14 1 0.006 0.53 -0.166 0.742 -0.68 0.742 -0.68 -0.673 -0.222 -1.261 -0.048 -1.624 0.393 0.176 -0.404 0.38 -0.795 0.607 -1.17 0.139 0.072 0.534 0.248 0.978 0.202 0.553 -0.059 0.86 -0.522 0.86 -0.522 -0.625 -0.355 -1.247 -0.293 -1.691 0.085 0.234 -0.364 0.49 -0.714 0.77 -1.046 0.096 0.071 0.483 0.34 0.965 0.359 0.556 0.022 0.927 -0.391 0.927 -0.391 -0.604 -0.47 -1.272 -0.473 -1.78 -0.097a10 10 0 0 1 1.002 -0.998c0.103 0.102 0.436 0.398 0.886 0.485 0.546 0.105 0.975 -0.249 0.975 -0.249 -0.503 -0.529 -1.127 -0.647 -1.667 -0.4 0.34 -0.28 0.699 -0.537 1.076 -0.773 0.086 0.116 0.373 0.459 0.807 0.61 0.526 0.183 1 -0.105 1 -0.105 -0.42 -0.596 -1.018 -0.803 -1.588 -0.639 0.37 -0.217 0.756 -0.412 1.157 -0.585 0.226 0.065 0.636 0.13 1.048 -0.062 0.614 -0.289 0.932 -0.892 0.932 -0.892 -0.784 -0.287 -1.597 -0.018 -2.102 0.795a10.37 10.37 0 0 0 -1.2 0.62c0.57 -0.499 0.734 -1.282 0.331 -2.104zm3.935 5.19c-0.045 -0.005 -0.225 0.052 -0.412 0.088 -0.187 0.036 -0.696 0.062 -0.874 0.102 -0.178 0.04 -0.607 0.188 -0.727 0.21 -0.121 0.023 -0.496 0.245 -0.79 0.335 -0.295 0.089 -0.67 0.308 -0.95 0.392 -0.282 0.085 -0.697 0.246 -0.88 0.304 -0.183 0.058 -0.504 0.214 -0.518 0.245 -0.013 0.032 0.184 0.545 0.318 0.834 0.134 0.29 0.347 0.763 0.4 0.91 0.055 0.148 0.113 0.282 0.162 0.295 0.049 0.013 0.45 0.098 0.562 0.116 0.111 0.018 0.473 0.023 0.593 0.014 0.12 -0.01 0.38 0 0.487 0.053 0 0 0.035 0.527 0.035 0.571 0 0.045 -0.009 0.848 -0.026 0.946 -0.018 0.099 -0.08 0.946 -0.117 1.34 -0.035 0.392 -0.089 1.49 -0.089 1.632 0 0.143 -0.053 1.214 -0.053 1.41v0.955c0 0.17 0.044 0.572 0.062 0.607 0.018 0.036 2.178 0.188 2.802 0.26 0.625 0.07 1.419 0.142 2.08 0.124 0.66 -0.018 1.66 -0.107 2.133 -0.107 0.473 0 0.803 0 0.839 -0.036 0.035 -0.035 -0.036 -0.874 -0.036 -1.151 0 -0.276 -0.036 -1.58 -0.036 -1.91 0 -0.33 -0.027 -1.196 -0.027 -1.321s-0.035 -1.526 -0.062 -1.999c-0.027 -0.473 -0.098 -1.285 -0.08 -1.339 0.017 -0.053 0.268 -0.107 0.365 -0.09 0.099 0.019 0.572 0.09 0.679 0.09 0.107 0 0.41 0.027 0.473 -0.017 0.062 -0.045 0.607 -1.071 0.67 -1.214 0.062 -0.143 0.303 -0.714 0.303 -0.759 0 -0.044 -0.813 -0.401 -1.045 -0.526 -0.231 -0.125 -0.87 -0.442 -1.088 -0.513 -0.219 -0.072 -0.505 -0.143 -0.643 -0.21s-0.607 -0.192 -0.861 -0.25c-0.254 -0.058 -0.608 -0.194 -0.738 -0.207 -0.129 -0.014 -0.343 -0.045 -0.38 -0.05 -0.035 -0.004 -0.173 -0.116 -0.209 -0.093 -0.035 0.022 -0.392 0.354 -0.642 0.408 -0.25 0.054 -0.86 0.075 -1.164 -0.041 -0.303 -0.116 -0.472 -0.404 -0.516 -0.408z" fill="#f7f6fb" stroke-width="1"></path>
</svg>